<?xml version="1.0" encoding="UTF-8"?>
<svg xmlns="http://www.w3.org/2000/svg" viewBox="0 0 86.293 80"><title>Music Victoria Logo Stacked</title><path d="M8.611,50.062a1.207,1.207,0,0,1-1.268.973,1.238,1.238,0,0,1-1.3-.973L3.273,41.433V52.859a1.059,1.059,0,0,1-1.18,1.179H1.266A1.058,1.058,0,0,1,.087,52.859V34.6a1.058,1.058,0,0,1,1.179-1.178H2.329a1.248,1.248,0,0,1,1.327.972L7.314,45.41,11,34.4a1.276,1.276,0,0,1,1.327-.972h1.179A1.059,1.059,0,0,1,14.688,34.6V52.859a1.06,1.06,0,0,1-1.181,1.179h-.944a1.059,1.059,0,0,1-1.179-1.179V41.433Z" fill="#fff"/><path d="M27.961,34.6V49.914c0,3.181-2.006,4.358-5.133,4.358H22.71c-3.125,0-5.132-1.148-5.132-4.358V34.6a1.058,1.058,0,0,1,1.18-1.178H19.82A1.059,1.059,0,0,1,21,34.6V49.384c0,1.473.648,1.885,1.769,1.885s1.77-.412,1.77-1.885V34.6a1.058,1.058,0,0,1,1.18-1.178H26.78A1.059,1.059,0,0,1,27.961,34.6" fill="#fff"/><path d="M39.465,40.785h-1a1.058,1.058,0,0,1-1.18-1.177V37.9a1.564,1.564,0,0,0-1.741-1.767A1.562,1.562,0,0,0,33.8,37.9v1.412a2.081,2.081,0,0,0,1.327,2.093l2.418,1.353C39.524,43.878,40.7,44.79,40.7,47v2.974c0,3.18-1.977,4.3-5.1,4.3h-.059c-3.126,0-5.1-1.09-5.1-4.3V47.559a1.058,1.058,0,0,1,1.18-1.179h1a1.059,1.059,0,0,1,1.18,1.179V49.5a1.77,1.77,0,1,0,3.539,0v-1.62a2.1,2.1,0,0,0-1.357-2.15L33.6,44.379c-2.006-1.149-3.156-2.092-3.156-4.241V37.429c0-3.064,2.242-4.242,5.073-4.242h.059c2.832,0,5.074,1.178,5.074,4.242v2.179a1.058,1.058,0,0,1-1.18,1.177" fill="#fff"/><path d="M45.541,54.037H44.479A1.058,1.058,0,0,1,43.3,52.86V34.6a1.059,1.059,0,0,1,1.179-1.179h1.062a1.059,1.059,0,0,1,1.18,1.179V52.86a1.058,1.058,0,0,1-1.18,1.177" fill="#fff"/><path d="M60.112,46.822v3.093c0,3.179-2.064,4.358-5.19,4.358h-.06c-3.125,0-5.19-1.148-5.19-4.358V37.547c0-3.064,2.065-4.36,5.19-4.36h.06c3.126,0,5.19,1.3,5.19,4.36v2.591a1.058,1.058,0,0,1-1.178,1.178H57.871a1.059,1.059,0,0,1-1.18-1.178V38.076c0-1.443-.708-1.885-1.8-1.885s-1.8.442-1.8,1.885V49.385c0,1.444.707,1.885,1.8,1.885s1.8-.441,1.8-1.885V46.822a1.058,1.058,0,0,1,1.18-1.177h1.063a1.057,1.057,0,0,1,1.178,1.177" fill="#fff"/><path d="M11.216,60.416,7.765,78.705a1.19,1.19,0,0,1-1.3,1.059H4.875a1.19,1.19,0,0,1-1.3-1.059L.126,60.416a.96.96,0,0,1,1.062-1.265h1.09a1.163,1.163,0,0,1,1.268,1.088L5.759,74.433,7.971,60.239a1.165,1.165,0,0,1,1.268-1.088h.915a.961.961,0,0,1,1.062,1.265" fill="#fff"/><path d="M15.522,79.764H14.46a1.059,1.059,0,0,1-1.18-1.179V60.328a1.06,1.06,0,0,1,1.18-1.179h1.062a1.059,1.059,0,0,1,1.18,1.179V78.585a1.058,1.058,0,0,1-1.18,1.179" fill="#fff"/><path d="M30.093,72.549v3.093c0,3.179-2.064,4.358-5.19,4.358h-.06c-3.127,0-5.191-1.149-5.191-4.358V63.274c0-3.064,2.064-4.36,5.191-4.36h.06c3.126,0,5.19,1.3,5.19,4.36v2.591a1.057,1.057,0,0,1-1.178,1.177H27.851a1.058,1.058,0,0,1-1.18-1.177V63.8c0-1.443-.707-1.885-1.8-1.885s-1.8.442-1.8,1.885V75.112c0,1.442.707,1.883,1.8,1.883s1.8-.441,1.8-1.883V72.549a1.058,1.058,0,0,1,1.18-1.177h1.064a1.056,1.056,0,0,1,1.178,1.177" fill="#fff"/><path d="M41.469,60.328v.648a1.059,1.059,0,0,1-1.18,1.178H38.018V78.587a1.058,1.058,0,0,1-1.18,1.177H35.776a1.057,1.057,0,0,1-1.18-1.177V62.154H32.325a1.058,1.058,0,0,1-1.18-1.178v-.648a1.057,1.057,0,0,1,1.18-1.177h7.964a1.058,1.058,0,0,1,1.18,1.177" fill="#fff"/><path d="M48.174,77c1.121,0,1.887-.412,1.887-1.883V63.8c0-1.473-.766-1.885-1.887-1.885s-1.888.412-1.888,1.885V75.112c0,1.471.767,1.883,1.888,1.883m-.119-18.081h.237c3.126,0,5.191,1.237,5.191,4.358v12.37c0,3.122-2.065,4.357-5.191,4.357h-.237c-3.126,0-5.191-1.235-5.191-4.357V63.272c0-3.15,2.065-4.358,5.191-4.358" fill="#fff"/><path d="M59.216,68.6h1.8c1.121,0,1.889-.412,1.889-1.885V64.039c0-1.473-.768-1.886-1.889-1.886h-1.8Zm6.4,11.161H64.583a1.249,1.249,0,0,1-1.327-.971l-2.3-7.245H59.216v7.037a1.058,1.058,0,0,1-1.18,1.179H56.974a1.059,1.059,0,0,1-1.18-1.179V60.328a1.06,1.06,0,0,1,1.18-1.179h4.158c3.127,0,5.192,1.237,5.192,4.36V67.19a3.783,3.783,0,0,1-2.242,3.828l2.508,7.391a.933.933,0,0,1-.974,1.355" fill="#fff"/><path d="M71.457,79.764H70.4a1.058,1.058,0,0,1-1.18-1.179V60.328a1.059,1.059,0,0,1,1.18-1.179h1.062a1.06,1.06,0,0,1,1.18,1.179V78.585a1.059,1.059,0,0,1-1.18,1.179" fill="#fff"/><path d="M81.839,72.343l-1.445-9.158-1.445,9.158ZM85.2,79.764H84.111a1.165,1.165,0,0,1-1.269-1.09l-.56-3.5H78.507l-.561,3.5a1.165,1.165,0,0,1-1.268,1.09h-.915A.961.961,0,0,1,74.7,78.5L78.093,60.21a1.19,1.19,0,0,1,1.3-1.061h2.124a1.191,1.191,0,0,1,1.3,1.061L86.264,78.5A.961.961,0,0,1,85.2,79.764" fill="#fff"/><path d="M16.258.42c-.034-.034-.068-.059-.1-.088a.979.979,0,0,0-.465-.273.906.906,0,0,0-.112-.026A1.714,1.714,0,0,0,15.256,0H14.194a1.06,1.06,0,0,0-1.18,1.18v9.012L3.242.42c-.034-.034-.066-.059-.1-.088A1,1,0,0,0,2.675.059a.876.876,0,0,0-.11-.026A1.725,1.725,0,0,0,2.241,0H1.179A1.058,1.058,0,0,0,0,1.18V24.669a1.057,1.057,0,0,0,1.179,1.178H2.241a1.742,1.742,0,0,0,.335-.034l.076-.018a.977.977,0,0,0,.5-.3,1.069,1.069,0,0,0,.081-.07l9.778-9.779v9.02a1.059,1.059,0,0,0,1.18,1.178h1.062a1.723,1.723,0,0,0,.334-.034c.027,0,.052-.011.077-.018a.976.976,0,0,0,.5-.3c.026-.024.054-.043.08-.07L27.005,14.674a2.07,2.07,0,0,0,.181-.156l.751-.751a1.059,1.059,0,0,0,0-1.668Zm.178,5.016L23.92,12.92l-7.484,7.485Zm-13.015,0,7.484,7.485L3.421,20.405Z" fill="#e12827"/><path d="M47.006,12.1,35.326.42c-.034-.034-.068-.059-.1-.088a.988.988,0,0,0-.466-.273.906.906,0,0,0-.112-.026A1.7,1.7,0,0,0,34.324,0H33.262a1.059,1.059,0,0,0-1.179,1.18V24.669a1.058,1.058,0,0,0,1.179,1.178h1.062a1.761,1.761,0,0,0,.336-.034q.038-.007.075-.018a.976.976,0,0,0,.5-.3c.026-.024.054-.043.08-.07L46.074,14.674a1.806,1.806,0,0,0,.18-.156l.751-.751a1.059,1.059,0,0,0,0-1.668M35.5,5.436l7.485,7.484L35.5,20.405Z" fill="#e12827"/></svg>